<svg id="Layer_1" data-name="Layer 1" xmlns="http://www.w3.org/2000/svg" viewBox="0 0 329.21 427.89"><defs><style>.cls-1{fill:#fff;}</style></defs><polygon class="cls-1" points="103.01 297.44 102.82 289.95 108.19 290.49 107.85 284.38 113.35 284.72 112.81 280.13 114.79 279.9 115.62 286.86 109.97 286.51 110.31 292.71 104.88 292.17 105.01 297.39 103.01 297.44"/><path class="cls-1" d="M246.42,285.57a5.67,5.67,0,1,1,5.67-5.67A5.68,5.68,0,0,1,246.42,285.57Zm0-9.34a3.67,3.67,0,1,0,3.67,3.67A3.67,3.67,0,0,0,246.42,276.23Z"/><path class="cls-1" d="M172.51,23.69l-.11,0a2.56,2.56,0,0,1-1.52-.87,2.6,2.6,0,0,1-.61-1.63,3,3,0,0,1,1.95-2.63l19.23-9.33,19,7.17a2.91,2.91,0,0,1,2.13,2.47,3,3,0,0,1-.18,1,2.89,2.89,0,0,1-.54.87,2.78,2.78,0,0,1-.83.62,2.54,2.54,0,0,1-1,.25Zm19-12.31-18.42,8.95c-.77.4-.87.62-.86.78v0a.57.57,0,0,0,.14.38.59.59,0,0,0,.24.17l37.22-2.06a.73.73,0,0,0,.24-.07.69.69,0,0,0,.22-.16.61.61,0,0,0,.15-.24.75.75,0,0,0,.05-.26c0-.14-.08-.31-.87-.65Z"/><path class="cls-1" d="M190.42,11l-.09-4.25,1-.06A2.55,2.55,0,0,0,193,5.9a2.65,2.65,0,0,0,.72-1.8A2.26,2.26,0,0,0,193,2.57,2.17,2.17,0,0,0,191.39,2a2.54,2.54,0,0,0-1.65.78,2.62,2.62,0,0,0-.7,1.73l-2,0a4.54,4.54,0,0,1,1.25-3.07,4.45,4.45,0,0,1,3-1.4,4.17,4.17,0,0,1,3.08,1.08,4.27,4.27,0,0,1,1.39,3,4.68,4.68,0,0,1-1.27,3.21,4.54,4.54,0,0,1-2.1,1.27l0,2.43Z"/><path class="cls-1" d="M229.53,136.44a5.66,5.66,0,1,1,5.64-5.66A5.66,5.66,0,0,1,229.53,136.44Zm0-9.32a3.66,3.66,0,1,0,3.64,3.66A3.66,3.66,0,0,0,229.53,127.12Z"/><path class="cls-1" d="M309.1,427.89a3.17,3.17,0,0,1-.61-.07,2.74,2.74,0,0,1-.94-.42l-30.69-21.85a2.59,2.59,0,0,1-.65-1.63,2.62,2.62,0,0,1,.52-1.66,3,3,0,0,1,3.17-.84l20.85,4.7,10.38,17.44a2.89,2.89,0,0,1,.13,3.26,2.53,2.53,0,0,1-.77.68,2.57,2.57,0,0,1-1,.35A3,3,0,0,1,309.1,427.89Zm-30.8-23.75,30.41,21.62a.7.7,0,0,0,.23.11.82.82,0,0,0,.27,0,1,1,0,0,0,.27-.1.61.61,0,0,0,.19-.17c.09-.11.14-.29-.28-1.06l-9.92-16.67-20-4.5c-.85-.16-1.07-.05-1.16.08h0a.67.67,0,0,0-.13.38A.56.56,0,0,0,278.3,404.14Z"/><path class="cls-1" d="M300.41,408.1l-1.59-1.22,2.56-3.39.8.58a2.61,2.61,0,0,0,3.52-.51,2.24,2.24,0,0,0,.38-1.66,2.22,2.22,0,0,0-.92-1.46,2.48,2.48,0,0,0-1.78-.42,2.52,2.52,0,0,0-1.61.9l-1.55-1.26A4.52,4.52,0,0,1,303.1,398a4.44,4.44,0,0,1,3.21.77,4.18,4.18,0,0,1,1.74,2.77,4.24,4.24,0,0,1-.75,3.19,4.69,4.69,0,0,1-3,1.72,4.56,4.56,0,0,1-2.43-.31Z"/><polygon class="cls-1" points="301.96 97.18 300.22 92.15 294.84 94.44 292.99 88.49 287.33 90.67 285.71 83.89 287.66 83.42 288.74 87.98 294.26 85.85 296.09 91.73 301.4 89.47 303.85 96.53 301.96 97.18"/><path class="cls-1" d="M201.4,356.19a5.66,5.66,0,1,1,5.64-5.66A5.66,5.66,0,0,1,201.4,356.19Zm0-9.32a3.66,3.66,0,1,0,3.64,3.66A3.66,3.66,0,0,0,201.4,346.87Z"/><path class="cls-1" d="M141,204.13l-.3-.1a2.91,2.91,0,0,1-.85-.58,2.85,2.85,0,0,1-.58-.85,2.6,2.6,0,0,1-.22-1,2.86,2.86,0,0,1,2-2.54l18.77-8,19.68,8.51c.65.31,2.09,1,2.11,2.57a2.67,2.67,0,0,1-.55,1.66,2.62,2.62,0,0,1-1.49.93l-.22,0-37.62-.49A2.46,2.46,0,0,1,141,204.13Zm18.8-10.91-17.94,7.64c-.76.36-.82.54-.82.68a1.1,1.1,0,0,0,.06.26.73.73,0,0,0,.16.23.87.87,0,0,0,.23.16.74.74,0,0,0,.25.05l37.49.49a.61.61,0,0,0,.24-.18.62.62,0,0,0,.13-.4h0c0-.16-.11-.38-.93-.76Z"/><path class="cls-1" d="M158.88,192.84l-.07-2.43a4.58,4.58,0,0,1-2.16-1.19,4.66,4.66,0,0,1-1.41-3.1,4.32,4.32,0,0,1,1.27-3.09,4.19,4.19,0,0,1,3-1.21,4.47,4.47,0,0,1,3.06,1.27,4.56,4.56,0,0,1,1.39,3l-2,.11a2.52,2.52,0,0,0-.78-1.69,2.49,2.49,0,0,0-1.7-.71,2.19,2.19,0,0,0-1.61.64,2.23,2.23,0,0,0-.67,1.62,2.62,2.62,0,0,0,2.57,2.44h1v1.33l.07,2.93Z"/><path class="cls-1" d="M299.24,216.83c0-.1-.07-.2-.1-.3a2.74,2.74,0,0,1-.08-1,2.56,2.56,0,0,1,.31-1,2.45,2.45,0,0,1,.65-.81,2.88,2.88,0,0,1,3.23,0l17.95,9.7,5.61,20.7a3,3,0,0,1-.69,3.25,2.69,2.69,0,0,1-1.64.6,2.59,2.59,0,0,1-1.66-.59l-.15-.16L299.6,217.46A2.63,2.63,0,0,1,299.24,216.83Zm20.26,7.9-17.17-9.27c-.74-.36-.92-.3-1-.21a.51.51,0,0,0-.17.21.79.79,0,0,0-.08.26.86.86,0,0,0,0,.28.55.55,0,0,0,.11.23l23,29.62a.64.64,0,0,0,.3.08.55.55,0,0,0,.38-.15h0c.13-.11.23-.33,0-1.21Z"/><path class="cls-1" d="M319.24,223.8l1.86-1.56a4.66,4.66,0,0,1,1.13-5.47,4.26,4.26,0,0,1,3.2-.93,4.19,4.19,0,0,1,2.85,1.62,4.47,4.47,0,0,1,.91,3.19,4.55,4.55,0,0,1-1.5,3l-1.33-1.49a2.55,2.55,0,0,0,.84-1.67,2.5,2.5,0,0,0-.5-1.77,2.23,2.23,0,0,0-1.51-.87,2.26,2.26,0,0,0-1.68.49,2.64,2.64,0,0,0-.32,3.53l.61.78-1,.83-2.25,1.89Z"/><polygon class="cls-1" points="115.67 114.08 113.78 113.42 116.23 106.35 121.57 108.62 123.42 102.73 128.97 104.86 130.06 100.28 132 100.75 130.38 107.54 124.69 105.36 122.82 111.33 117.42 109.03 115.67 114.08"/><path class="cls-1" d="M5.67,313a5.67,5.67,0,1,1,5.67-5.67A5.67,5.67,0,0,1,5.67,313Zm0-9.34a3.67,3.67,0,1,0,3.67,3.67A3.67,3.67,0,0,0,5.67,303.63Z"/><path class="cls-1" d="M24.25,184.13a5.67,5.67,0,1,1,5.67-5.67A5.68,5.68,0,0,1,24.25,184.13Zm0-9.34a3.67,3.67,0,1,0,3.67,3.67A3.68,3.68,0,0,0,24.25,174.79Z"/><path class="cls-1" d="M29,67.62l-.07-.08L4.32,39a2.59,2.59,0,0,1-.51-.9,2.57,2.57,0,0,1-.13-1,2.67,2.67,0,0,1,.86-1.83,2.88,2.88,0,0,1,3.23-.2L26.2,43.84l6.66,20.38c.2.69.65,2.23-.52,3.28a2.66,2.66,0,0,1-1.61.69,2.6,2.6,0,0,1-1.68-.5Zm-4.4-22.34L6.94,36.91c-.76-.33-.94-.26-1-.17a.82.82,0,0,0-.16.22.89.89,0,0,0-.07.28.84.84,0,0,0,0,.27.61.61,0,0,0,.13.22L30.31,66.12a.53.53,0,0,0,.3.07A.68.68,0,0,0,31,66h0c.12-.11.2-.34-.05-1.21Z"/><path class="cls-1" d="M25.62,45.83l-1.37-1.46L26,42.71a4.56,4.56,0,0,1-.55-2.41,4.62,4.62,0,0,1,1.39-3.11A4.28,4.28,0,0,1,30,36.09,4.2,4.2,0,0,1,33,37.57,4.48,4.48,0,0,1,34,40.7a4.53,4.53,0,0,1-1.34,3l-1.41-1.42A2.54,2.54,0,0,0,32,40.61a2.49,2.49,0,0,0-.59-1.74,2.22,2.22,0,0,0-3.2-.21,2.63,2.63,0,0,0-.13,3.54l.64.74Z"/><path class="cls-1" d="M93.34,390.68,55.7,388a2.53,2.53,0,0,1-1-.27,2.81,2.81,0,0,1-.82-.63,2.77,2.77,0,0,1-.53-.89,2.69,2.69,0,0,1-.16-1,2.87,2.87,0,0,1,2.14-2.42l19.21-6.88,19.15,9.66c.63.34,2,1.11,2,2.69a2.68,2.68,0,0,1-.65,1.62,2.57,2.57,0,0,1-1.54.84ZM74.4,378,56,384.61c-.77.31-.84.49-.85.62a.8.8,0,0,0,0,.27.75.75,0,0,0,.15.24.62.62,0,0,0,.22.17.72.72,0,0,0,.25.07l37.39,2.69a.59.59,0,0,0,.25-.17.62.62,0,0,0,.15-.38h0c0-.16-.09-.39-.88-.82Z"/><path class="cls-1" d="M75.54,377.68l-2-.07.08-2.44a4.64,4.64,0,0,1-3.31-4.49,4.32,4.32,0,0,1,1.44-3,4.22,4.22,0,0,1,3.12-1,4.56,4.56,0,0,1,4.18,4.55h-2a2.55,2.55,0,0,0-.68-1.73,2.5,2.5,0,0,0-1.65-.82,2.24,2.24,0,0,0-2.41,2.13,2.57,2.57,0,0,0,.7,1.75,2.51,2.51,0,0,0,1.72.84l1,.07Z"/></svg>